<svg xmlns="http://www.w3.org/2000/svg" width="180" height="180" viewBox="0 0 180 180">
  <defs>
    <linearGradient id="bg" x1="0%" y1="0%" x2="100%" y2="100%">
      <stop offset="0%" style="stop-color:#0ea5e9"/>
      <stop offset="100%" style="stop-color:#a855f7"/>
    </linearGradient>
  </defs>
  <rect width="180" height="180" rx="30" fill="url(#bg)"/>
  <path d="M56 122 L56 58 Q56 49 65 45 L90 34 Q94 32 98 34 L122 45 Q131 49 131 58 L131 94 Q131 103 122 107 L98 118 Q94 120 90 118 L84 116 L84 122 Q84 131 75 131 L65 131 Q56 131 56 122Z" fill="white" opacity="0.95"/>
  <path d="M77 73 L77 90" stroke="#0ea5e9" stroke-width="4.5" stroke-linecap="round"/>
  <path d="M86 79 L86 90" stroke="#a855f7" stroke-width="4.5" stroke-linecap="round"/>
  <path d="M96 66 L96 90" stroke="#0ea5e9" stroke-width="4.5" stroke-linecap="round"/>
  <path d="M105 70 L105 90" stroke="#a855f7" stroke-width="4.5" stroke-linecap="round"/>
</svg>
